  <svg height="1870" version="1.1" width="687" xmlns="http://www.w3.org/2000/svg" xmlns:xlink="http://www.w3.org/1999/xlink" style=" overflow: hidden;  " viewBox="0 0 687 1870" preserveAspectRatio="xMidYMid meet">
   <desc style="-webkit-tap-highlight-color: rgba(0, 0, 0, 0);">
    
    
    
    Created with RaphaÃ«l 2.2.0
   </desc>
   <defs style="-webkit-tap-highlight-color: rgba(0, 0, 0, 0);">
    <path stroke-linecap="round" d="M5,0 0,2.5 5,5z" style="-webkit-tap-highlight-color: rgba(0, 0, 0, 0);">
    </path>
    <marker markerHeight="3" markerWidth="3" orient="auto" refX="1.5" refY="1.5" style="-webkit-tap-highlight-color: rgba(0, 0, 0, 0);">
     <use transform="rotate(180 1.5 1.5) scale(0.6,0.6)" stroke-width="1.6667" fill="black" stroke="none" style="-webkit-tap-highlight-color: rgba(0, 0, 0, 0);">
     </use>
    </marker>
    <marker markerHeight="3" markerWidth="3" orient="auto" refX="1.5" refY="1.5" style="-webkit-tap-highlight-color: rgba(0, 0, 0, 0);">
     <use transform="rotate(180 1.5 1.5) scale(0.6,0.6)" stroke-width="1.6667" fill="black" stroke="none" style="-webkit-tap-highlight-color: rgba(0, 0, 0, 0);">
     </use>
    </marker>
    <marker markerHeight="3" markerWidth="3" orient="auto" refX="1.5" refY="1.5" style="-webkit-tap-highlight-color: rgba(0, 0, 0, 0);">
     <use transform="rotate(180 1.5 1.5) scale(0.6,0.6)" stroke-width="1.6667" fill="black" stroke="none" style="-webkit-tap-highlight-color: rgba(0, 0, 0, 0);">
     </use>
    </marker>
    <marker markerHeight="3" markerWidth="3" orient="auto" refX="1.5" refY="1.5" style="-webkit-tap-highlight-color: rgba(0, 0, 0, 0);">
     <use transform="rotate(180 1.5 1.5) scale(0.6,0.6)" stroke-width="1.6667" fill="black" stroke="none" style="-webkit-tap-highlight-color: rgba(0, 0, 0, 0);">
     </use>
    </marker>
    <marker markerHeight="3" markerWidth="3" orient="auto" refX="1.5" refY="1.5" style="-webkit-tap-highlight-color: rgba(0, 0, 0, 0);">
     <use transform="rotate(180 1.5 1.5) scale(0.6,0.6)" stroke-width="1.6667" fill="black" stroke="none" style="-webkit-tap-highlight-color: rgba(0, 0, 0, 0);">
     </use>
    </marker>
    <marker markerHeight="3" markerWidth="3" orient="auto" refX="1.5" refY="1.5" style="-webkit-tap-highlight-color: rgba(0, 0, 0, 0);">
     <use transform="rotate(180 1.5 1.5) scale(0.6,0.6)" stroke-width="1.6667" fill="black" stroke="none" style="-webkit-tap-highlight-color: rgba(0, 0, 0, 0);">
     </use>
    </marker>
    <marker markerHeight="3" markerWidth="3" orient="auto" refX="1.5" refY="1.5" style="-webkit-tap-highlight-color: rgba(0, 0, 0, 0);">
     <use transform="rotate(180 1.5 1.5) scale(0.6,0.6)" stroke-width="1.6667" fill="black" stroke="none" style="-webkit-tap-highlight-color: rgba(0, 0, 0, 0);">
     </use>
    </marker>
    <marker markerHeight="3" markerWidth="3" orient="auto" refX="1.5" refY="1.5" style="-webkit-tap-highlight-color: rgba(0, 0, 0, 0);">
     <use transform="rotate(180 1.5 1.5) scale(0.6,0.6)" stroke-width="1.6667" fill="black" stroke="none" style="-webkit-tap-highlight-color: rgba(0, 0, 0, 0);">
     </use>
    </marker>
    <marker markerHeight="3" markerWidth="3" orient="auto" refX="1.5" refY="1.5" style="-webkit-tap-highlight-color: rgba(0, 0, 0, 0);">
     <use transform="rotate(180 1.5 1.5) scale(0.6,0.6)" stroke-width="1.6667" fill="black" stroke="none" style="-webkit-tap-highlight-color: rgba(0, 0, 0, 0);">
     </use>
    </marker>
    <marker markerHeight="3" markerWidth="3" orient="auto" refX="1.5" refY="1.5" style="-webkit-tap-highlight-color: rgba(0, 0, 0, 0);">
     <use transform="rotate(180 1.5 1.5) scale(0.6,0.6)" stroke-width="1.6667" fill="black" stroke="none" style="-webkit-tap-highlight-color: rgba(0, 0, 0, 0);">
     </use>
    </marker>
    <marker markerHeight="3" markerWidth="3" orient="auto" refX="1.5" refY="1.5" style="-webkit-tap-highlight-color: rgba(0, 0, 0, 0);">
     <use transform="rotate(180 1.5 1.5) scale(0.6,0.6)" stroke-width="1.6667" fill="black" stroke="none" style="-webkit-tap-highlight-color: rgba(0, 0, 0, 0);">
     </use>
    </marker>
    <marker markerHeight="3" markerWidth="3" orient="auto" refX="1.5" refY="1.5" style="-webkit-tap-highlight-color: rgba(0, 0, 0, 0);">
     <use transform="rotate(180 1.5 1.5) scale(0.6,0.6)" stroke-width="1.6667" fill="black" stroke="none" style="-webkit-tap-highlight-color: rgba(0, 0, 0, 0);">
     </use>
    </marker>
    <marker markerHeight="3" markerWidth="3" orient="auto" refX="1.5" refY="1.5" style="-webkit-tap-highlight-color: rgba(0, 0, 0, 0);">
     <use transform="rotate(180 1.5 1.5) scale(0.6,0.6)" stroke-width="1.6667" fill="black" stroke="none" style="-webkit-tap-highlight-color: rgba(0, 0, 0, 0);">
     </use>
    </marker>
    <marker markerHeight="3" markerWidth="3" orient="auto" refX="1.5" refY="1.5" style="-webkit-tap-highlight-color: rgba(0, 0, 0, 0);">
     <use transform="rotate(180 1.5 1.5) scale(0.6,0.6)" stroke-width="1.6667" fill="black" stroke="none" style="-webkit-tap-highlight-color: rgba(0, 0, 0, 0);">
     </use>
    </marker>
    <marker markerHeight="3" markerWidth="3" orient="auto" refX="1.5" refY="1.5" style="-webkit-tap-highlight-color: rgba(0, 0, 0, 0);">
     <use transform="rotate(180 1.5 1.5) scale(0.6,0.6)" stroke-width="1.6667" fill="black" stroke="none" style="-webkit-tap-highlight-color: rgba(0, 0, 0, 0);">
     </use>
    </marker>
    <marker markerHeight="3" markerWidth="3" orient="auto" refX="1.5" refY="1.5" style="-webkit-tap-highlight-color: rgba(0, 0, 0, 0);">
     <use transform="rotate(180 1.5 1.5) scale(0.6,0.6)" stroke-width="1.6667" fill="black" stroke="none" style="-webkit-tap-highlight-color: rgba(0, 0, 0, 0);">
     </use>
    </marker>
    <marker markerHeight="3" markerWidth="3" orient="auto" refX="1.5" refY="1.5" style="-webkit-tap-highlight-color: rgba(0, 0, 0, 0);">
     <use transform="rotate(180 1.5 1.5) scale(0.6,0.6)" stroke-width="1.6667" fill="black" stroke="none" style="-webkit-tap-highlight-color: rgba(0, 0, 0, 0);">
     </use>
    </marker>
    <marker markerHeight="3" markerWidth="3" orient="auto" refX="1.5" refY="1.5" style="-webkit-tap-highlight-color: rgba(0, 0, 0, 0);">
     <use transform="rotate(180 1.5 1.5) scale(0.6,0.6)" stroke-width="1.6667" fill="black" stroke="none" style="-webkit-tap-highlight-color: rgba(0, 0, 0, 0);">
     </use>
    </marker>
    <marker markerHeight="3" markerWidth="3" orient="auto" refX="1.5" refY="1.5" style="-webkit-tap-highlight-color: rgba(0, 0, 0, 0);">
     <use transform="rotate(180 1.5 1.5) scale(0.6,0.6)" stroke-width="1.6667" fill="black" stroke="none" style="-webkit-tap-highlight-color: rgba(0, 0, 0, 0);">
     </use>
    </marker>
   </defs>
   <rect x="0" y="0" width="48" height="36" rx="20" ry="20" fill="#ffffff" stroke="#000000" style="-webkit-tap-highlight-color: rgba(0, 0, 0, 0);" stroke-width="3" class="flowchart" transform="matrix(1,0,0,1,88.5,37.125)">
   </rect>
   <text x="10" y="18" text-anchor="start" font-family="&quot;Arial&quot;" font-size="14px" stroke="none" fill="#000000" style="-webkit-tap-highlight-color: rgba(0, 0, 0, 0); text-anchor: start; font-family: Arial; font-size: 14px;" class="flowchartt" transform="matrix(1,0,0,1,88.5,37.125)" stroke-width="1">
    <tspan dy="5" style="-webkit-tap-highlight-color: rgba(0, 0, 0, 0);">
     
     
     
     开始
    </tspan>
   </text>
   <rect x="0" y="0" width="174" height="36" rx="0" ry="0" fill="#ffffff" stroke="#000000" style="-webkit-tap-highlight-color: rgba(0, 0, 0, 0);" stroke-width="3" class="flowchart" transform="matrix(1,0,0,1,25.5,160.25)">
   </rect>
   <text x="10" y="18" text-anchor="start" font-family="&quot;Arial&quot;" font-size="14px" stroke="none" fill="#000000" style="-webkit-tap-highlight-color: rgba(0, 0, 0, 0); text-anchor: start; font-family: Arial; font-size: 14px;" class="flowchartt" transform="matrix(1,0,0,1,25.5,160.25)" stroke-width="1">
    <tspan dy="5" style="-webkit-tap-highlight-color: rgba(0, 0, 0, 0);">
     
     
     
     输入账号密码，点击登录
    </tspan>
   </text>
   <rect x="0" y="0" width="132" height="36" rx="0" ry="0" fill="#ffffff" stroke="#000000" style="-webkit-tap-highlight-color: rgba(0, 0, 0, 0);" stroke-width="3" class="flowchart" transform="matrix(1,0,0,1,46.5,283.375)">
   </rect>
   <text x="10" y="18" text-anchor="start" font-family="&quot;Arial&quot;" font-size="14px" stroke="none" fill="#000000" style="-webkit-tap-highlight-color: rgba(0, 0, 0, 0); text-anchor: start; font-family: Arial; font-size: 14px;" class="flowchartt" transform="matrix(1,0,0,1,46.5,283.375)" stroke-width="1">
    <tspan dy="5" style="-webkit-tap-highlight-color: rgba(0, 0, 0, 0);">
     
     
     
     前端加密（可选）
    </tspan>
   </text>
   <rect x="0" y="0" width="98" height="36" rx="0" ry="0" fill="#ffffff" stroke="#000000" style="-webkit-tap-highlight-color: rgba(0, 0, 0, 0);" stroke-width="3" class="flowchart" transform="matrix(1,0,0,1,63.5,406.5)">
   </rect>
   <text x="10" y="18" text-anchor="start" font-family="&quot;Arial&quot;" font-size="14px" stroke="none" fill="#000000" style="-webkit-tap-highlight-color: rgba(0, 0, 0, 0); text-anchor: start; font-family: Arial; font-size: 14px;" class="flowchartt" transform="matrix(1,0,0,1,63.5,406.5)" stroke-width="1">
    <tspan dy="5" style="-webkit-tap-highlight-color: rgba(0, 0, 0, 0);">
     
     
     
     后端API接收
    </tspan>
   </text>
   <rect x="0" y="0" width="162" height="36" rx="0" ry="0" fill="#ffffff" stroke="#000000" style="-webkit-tap-highlight-color: rgba(0, 0, 0, 0);" stroke-width="3" class="flowchart" transform="matrix(1,0,0,1,31.5,529.625)">
   </rect>
   <text x="10" y="18" text-anchor="start" font-family="&quot;Arial&quot;" font-size="14px" stroke="none" fill="#000000" style="-webkit-tap-highlight-color: rgba(0, 0, 0, 0); text-anchor: start; font-family: Arial; font-size: 14px;" class="flowchartt" transform="matrix(1,0,0,1,31.5,529.625)" stroke-width="1">
    <tspan dy="5" style="-webkit-tap-highlight-color: rgba(0, 0, 0, 0);">
     
     
     
     限流校验（Sentinel）
    </tspan>
   </text>
   <path fill="#ffffff" stroke="#000000" d="M49.125,24.5625L0,49.125L98.25,98.25L196.5,49.125L98.25,0L0,49.125" stroke-width="3" class="flowchart" style="-webkit-tap-highlight-color: rgba(0, 0, 0, 0);" transform="matrix(1,0,0,1,14.25,621.625)">
   </path>
   <text x="54.125" y="49.125" text-anchor="start" font-family="&quot;Arial&quot;" font-size="14px" stroke="none" fill="#000000" style="-webkit-tap-highlight-color: rgba(0, 0, 0, 0); text-anchor: start; font-family: Arial; font-size: 14px;" class="flowchartt" transform="matrix(1,0,0,1,14.25,621.625)" stroke-width="1">
    <tspan dy="5" style="-webkit-tap-highlight-color: rgba(0, 0, 0, 0);">
     
     
     
     Redis缓存查询?
    </tspan>
   </text>
   <path fill="#ffffff" stroke="#000000" d="M32.25,16.125L0,32.25L64.5,64.5L129,32.25L64.5,0L0,32.25" stroke-width="3" class="flowchart" style="-webkit-tap-highlight-color: rgba(0, 0, 0, 0);" transform="matrix(1,0,0,1,48,792.75)">
   </path>
   <text x="37.25" y="32.25" text-anchor="start" font-family="&quot;Arial&quot;" font-size="14px" stroke="none" fill="#000000" style="-webkit-tap-highlight-color: rgba(0, 0, 0, 0); text-anchor: start; font-family: Arial; font-size: 14px;" class="flowchartt" transform="matrix(1,0,0,1,48,792.75)" stroke-width="1">
    <tspan dy="5" style="-webkit-tap-highlight-color: rgba(0, 0, 0, 0);">
     
     
     
     密码比对
    </tspan>
   </text>
   <path fill="#ffffff" stroke="#000000" d="M42.75,21.375L0,42.75L85.5,85.5L171,42.75L85.5,0L0,42.75" stroke-width="3" class="flowchart" style="-webkit-tap-highlight-color: rgba(0, 0, 0, 0);" transform="matrix(1,0,0,1,27,919.625)">
   </path>
   <text x="47.75" y="42.75" text-anchor="start" font-family="&quot;Arial&quot;" font-size="14px" stroke="none" fill="#000000" style="-webkit-tap-highlight-color: rgba(0, 0, 0, 0); text-anchor: start; font-family: Arial; font-size: 14px;" class="flowchartt" transform="matrix(1,0,0,1,27,919.625)" stroke-width="1">
    <tspan dy="5" style="-webkit-tap-highlight-color: rgba(0, 0, 0, 0);">
     
     
     
     用户状态校验
    </tspan>
   </text>
   <rect x="0" y="0" width="76" height="36" rx="0" ry="0" fill="#ffffff" stroke="#000000" style="-webkit-tap-highlight-color: rgba(0, 0, 0, 0);" stroke-width="3" class="flowchart" transform="matrix(1,0,0,1,74.5,1092.25)">
   </rect>
   <text x="10" y="18" text-anchor="start" font-family="&quot;Arial&quot;" font-size="14px" stroke="none" fill="#000000" style="-webkit-tap-highlight-color: rgba(0, 0, 0, 0); text-anchor: start; font-family: Arial; font-size: 14px;" class="flowchartt" transform="matrix(1,0,0,1,74.5,1092.25)" stroke-width="1">
    <tspan dy="5" style="-webkit-tap-highlight-color: rgba(0, 0, 0, 0);">
     
     
     
     登录成功
    </tspan>
   </text>
   <rect x="0" y="0" width="104" height="36" rx="0" ry="0" fill="#ffffff" stroke="#000000" style="-webkit-tap-highlight-color: rgba(0, 0, 0, 0);" stroke-width="3" class="flowchart" transform="matrix(1,0,0,1,60.5,1215.375)">
   </rect>
   <text x="10" y="18" text-anchor="start" font-family="&quot;Arial&quot;" font-size="14px" stroke="none" fill="#000000" style="-webkit-tap-highlight-color: rgba(0, 0, 0, 0); text-anchor: start; font-family: Arial; font-size: 14px;" class="flowchartt" transform="matrix(1,0,0,1,60.5,1215.375)" stroke-width="1">
    <tspan dy="5" style="-webkit-tap-highlight-color: rgba(0, 0, 0, 0);">
     
     
     
     更新登录日志
    </tspan>
   </text>
   <rect x="0" y="0" width="90" height="36" rx="0" ry="0" fill="#ffffff" stroke="#000000" style="-webkit-tap-highlight-color: rgba(0, 0, 0, 0);" stroke-width="3" class="flowchart" transform="matrix(1,0,0,1,67.5,1338.5)">
   </rect>
   <text x="10" y="18" text-anchor="start" font-family="&quot;Arial&quot;" font-size="14px" stroke="none" fill="#000000" style="-webkit-tap-highlight-color: rgba(0, 0, 0, 0); text-anchor: start; font-family: Arial; font-size: 14px;" class="flowchartt" transform="matrix(1,0,0,1,67.5,1338.5)" stroke-width="1">
    <tspan dy="5" style="-webkit-tap-highlight-color: rgba(0, 0, 0, 0);">
     
     
     
     生成Token
    </tspan>
   </text>
   <rect x="0" y="0" width="213" height="36" rx="0" ry="0" fill="#ffffff" stroke="#000000" style="-webkit-tap-highlight-color: rgba(0, 0, 0, 0);" stroke-width="3" class="flowchart" transform="matrix(1,0,0,1,6,1461.625)">
   </rect>
   <text x="10" y="18" text-anchor="start" font-family="&quot;Arial&quot;" font-size="14px" stroke="none" fill="#000000" style="-webkit-tap-highlight-color: rgba(0, 0, 0, 0); text-anchor: start; font-family: Arial; font-size: 14px;" class="flowchartt" transform="matrix(1,0,0,1,6,1461.625)" stroke-width="1">
    <tspan dy="5" style="-webkit-tap-highlight-color: rgba(0, 0, 0, 0);">
     
     
     
     Token存储到Redis并绑定设备
    </tspan>
   </text>
   <rect x="0" y="0" width="132" height="36" rx="0" ry="0" fill="#ffffff" stroke="#000000" style="-webkit-tap-highlight-color: rgba(0, 0, 0, 0);" stroke-width="3" class="flowchart" transform="matrix(1,0,0,1,46.5,1584.75)">
   </rect>
   <text x="10" y="18" text-anchor="start" font-family="&quot;Arial&quot;" font-size="14px" stroke="none" fill="#000000" style="-webkit-tap-highlight-color: rgba(0, 0, 0, 0); text-anchor: start; font-family: Arial; font-size: 14px;" class="flowchartt" transform="matrix(1,0,0,1,46.5,1584.75)" stroke-width="1">
    <tspan dy="5" style="-webkit-tap-highlight-color: rgba(0, 0, 0, 0);">
     
     
     
     返回Token给前端
    </tspan>
   </text>
   <rect x="0" y="0" width="160" height="36" rx="0" ry="0" fill="#ffffff" stroke="#000000" style="-webkit-tap-highlight-color: rgba(0, 0, 0, 0);" stroke-width="3" class="flowchart" transform="matrix(1,0,0,1,32.5,1707.875)">
   </rect>
   <text x="10" y="18" text-anchor="start" font-family="&quot;Arial&quot;" font-size="14px" stroke="none" fill="#000000" style="-webkit-tap-highlight-color: rgba(0, 0, 0, 0); text-anchor: start; font-family: Arial; font-size: 14px;" class="flowchartt" transform="matrix(1,0,0,1,32.5,1707.875)" stroke-width="1">
    <tspan dy="5" style="-webkit-tap-highlight-color: rgba(0, 0, 0, 0);">
     
     
     
     前端持久化存储Token
    </tspan>
   </text>
   <rect x="0" y="0" width="48" height="36" rx="20" ry="20" fill="#ffffff" stroke="#000000" style="-webkit-tap-highlight-color: rgba(0, 0, 0, 0);" stroke-width="3" class="flowchart" transform="matrix(1,0,0,1,88.5,1831)">
   </rect>
   <text x="10" y="18" text-anchor="start" font-family="&quot;Arial&quot;" font-size="14px" stroke="none" fill="#000000" style="-webkit-tap-highlight-color: rgba(0, 0, 0, 0); text-anchor: start; font-family: Arial; font-size: 14px;" class="flowchartt" transform="matrix(1,0,0,1,88.5,1831)" stroke-width="1">
    <tspan dy="5" style="-webkit-tap-highlight-color: rgba(0, 0, 0, 0);">
     
     
     
     结束
    </tspan>
   </text>
   <rect x="0" y="0" width="76" height="36" rx="0" ry="0" fill="#ffffff" stroke="#000000" style="-webkit-tap-highlight-color: rgba(0, 0, 0, 0);" stroke-width="3" class="flowchart" transform="matrix(1,0,0,1,322.5,944.375)">
   </rect>
   <text x="10" y="18" text-anchor="start" font-family="&quot;Arial&quot;" font-size="14px" stroke="none" fill="#000000" style="-webkit-tap-highlight-color: rgba(0, 0, 0, 0); text-anchor: start; font-family: Arial; font-size: 14px;" class="flowchartt" transform="matrix(1,0,0,1,322.5,944.375)" stroke-width="1">
    <tspan dy="5" style="-webkit-tap-highlight-color: rgba(0, 0, 0, 0);">
     
     
     
     登录失败
    </tspan>
   </text>
   <rect x="0" y="0" width="90" height="36" rx="0" ry="0" fill="#ffffff" stroke="#000000" style="-webkit-tap-highlight-color: rgba(0, 0, 0, 0);" stroke-width="3" class="flowchart" transform="matrix(1,0,0,1,448.5,652.75)">
   </rect>
   <text x="10" y="18" text-anchor="start" font-family="&quot;Arial&quot;" font-size="14px" stroke="none" fill="#000000" style="-webkit-tap-highlight-color: rgba(0, 0, 0, 0); text-anchor: start; font-family: Arial; font-size: 14px;" class="flowchartt" transform="matrix(1,0,0,1,448.5,652.75)" stroke-width="1">
    <tspan dy="5" style="-webkit-tap-highlight-color: rgba(0, 0, 0, 0);">
     
     
     
     查询数据库
    </tspan>
   </text>
   <path fill="none" stroke="#000000" d="M112.5,73.125C112.5,73.125,112.5,137.90848171710968,112.5,155.7492452368606" stroke-width="3" marker-end="url(#raphael-marker-endblock33-objxx5z2)" style="-webkit-tap-highlight-color: rgba(0, 0, 0, 0);">
   </path>
   <path fill="none" stroke="#000000" d="M112.5,196.25C112.5,196.25,112.5,261.0334817171097,112.5,278.8742452368606" stroke-width="3" marker-end="url(#raphael-marker-endblock33-objqbl0f)" style="-webkit-tap-highlight-color: rgba(0, 0, 0, 0);">
   </path>
   <path fill="none" stroke="#000000" d="M112.5,319.375C112.5,319.375,112.5,384.1584817171097,112.5,401.9992452368606" stroke-width="3" marker-end="url(#raphael-marker-endblock33-obj8257e)" style="-webkit-tap-highlight-color: rgba(0, 0, 0, 0);">
   </path>
   <path fill="none" stroke="#000000" d="M112.5,442.5C112.5,442.5,112.5,507.2834817171097,112.5,525.1242452368606" stroke-width="3" marker-end="url(#raphael-marker-endblock33-obj5gqeh)" style="-webkit-tap-highlight-color: rgba(0, 0, 0, 0);">
   </path>
   <path fill="none" stroke="#000000" d="M112.5,565.625C112.5,565.625,112.5,603.82577085495,112.5,617.1251603176352" stroke-width="3" marker-end="url(#raphael-marker-endblock33-objvmia6)" style="-webkit-tap-highlight-color: rgba(0, 0, 0, 0);">
   </path>
   <path fill="none" stroke="#000000" d="M112.5,719.875C112.5,719.875,112.5,772.3579462766647,112.5,788.2463382158894" stroke-width="3" marker-end="url(#raphael-marker-endblock33-obj7qpq6)" style="-webkit-tap-highlight-color: rgba(0, 0, 0, 0);">
   </path>
   <text x="117.5" y="729.875" text-anchor="start" font-family="&quot;Arial&quot;" font-size="14px" stroke="none" fill="#000000" style="-webkit-tap-highlight-color: rgba(0, 0, 0, 0); text-anchor: start; font-family: Arial; font-size: 14px;" stroke-width="1">
    <tspan dy="5" style="-webkit-tap-highlight-color: rgba(0, 0, 0, 0);">
     
     
     
     yes
    </tspan>
   </text>
   <path fill="none" stroke="#000000" d="M210.75,670.75C210.75,670.75,411.25387113913894,670.75,444.00218407665943,670.75" stroke-width="3" marker-end="url(#raphael-marker-endblock33-objae5fd)" style="-webkit-tap-highlight-color: rgba(0, 0, 0, 0);">
   </path>
   <text x="215.75" y="660.75" text-anchor="start" font-family="&quot;Arial&quot;" font-size="14px" stroke="none" fill="#000000" style="-webkit-tap-highlight-color: rgba(0, 0, 0, 0); text-anchor: start; font-family: Arial; font-size: 14px;" stroke-width="1">
    <tspan dy="5" style="-webkit-tap-highlight-color: rgba(0, 0, 0, 0);">
     
     
     
     no
    </tspan>
   </text>
   <path fill="none" stroke="#000000" d="M112.5,857.25C112.5,857.25,112.5,900.8116640076041,112.5,915.1266053538529" stroke-width="3" marker-end="url(#raphael-marker-endblock33-objxj8er)" style="-webkit-tap-highlight-color: rgba(0, 0, 0, 0);">
   </path>
   <text x="117.5" y="867.25" text-anchor="start" font-family="&quot;Arial&quot;" font-size="14px" stroke="none" fill="#000000" style="-webkit-tap-highlight-color: rgba(0, 0, 0, 0); text-anchor: start; font-family: Arial; font-size: 14px;" stroke-width="1">
    <tspan dy="5" style="-webkit-tap-highlight-color: rgba(0, 0, 0, 0);">
     
     
     
     yes
    </tspan>
   </text>
   <path fill="none" stroke="#000000" d="M177,825C177,825,360.5,825,360.5,825C360.5,825,360.5,918.1387947499752,360.5,939.8772439152526" stroke-width="3" marker-end="url(#raphael-marker-endblock33-obj5hu8f)" style="-webkit-tap-highlight-color: rgba(0, 0, 0, 0);">
   </path>
   <text x="182" y="815" text-anchor="start" font-family="&quot;Arial&quot;" font-size="14px" stroke="none" fill="#000000" style="-webkit-tap-highlight-color: rgba(0, 0, 0, 0); text-anchor: start; font-family: Arial; font-size: 14px;" stroke-width="1">
    <tspan dy="5" style="-webkit-tap-highlight-color: rgba(0, 0, 0, 0);">
     
     
     
     no
    </tspan>
   </text>
   <path fill="none" stroke="#000000" d="M112.5,1005.125C112.5,1005.125,112.5,1069.9084817171097,112.5,1087.7492452368606" stroke-width="3" marker-end="url(#raphael-marker-endblock33-objszwpt)" style="-webkit-tap-highlight-color: rgba(0, 0, 0, 0);">
   </path>
   <text x="117.5" y="1015.125" text-anchor="start" font-family="&quot;Arial&quot;" font-size="14px" stroke="none" fill="#000000" style="-webkit-tap-highlight-color: rgba(0, 0, 0, 0); text-anchor: start; font-family: Arial; font-size: 14px;" stroke-width="1">
    <tspan dy="5" style="-webkit-tap-highlight-color: rgba(0, 0, 0, 0);">
     
     
     
     yes
    </tspan>
   </text>
   <path fill="none" stroke="#000000" d="M198,962.375C198,962.375,295.675133228302,962.375,317.9954273449257,962.375" stroke-width="3" marker-end="url(#raphael-marker-endblock33-obje4jd2)" style="-webkit-tap-highlight-color: rgba(0, 0, 0, 0);">
   </path>
   <text x="203" y="952.375" text-anchor="start" font-family="&quot;Arial&quot;" font-size="14px" stroke="none" fill="#000000" style="-webkit-tap-highlight-color: rgba(0, 0, 0, 0); text-anchor: start; font-family: Arial; font-size: 14px;" stroke-width="1">
    <tspan dy="5" style="-webkit-tap-highlight-color: rgba(0, 0, 0, 0);">
     
     
     
     no
    </tspan>
   </text>
   <path fill="none" stroke="#000000" d="M112.5,1128.25C112.5,1128.25,112.5,1193.0334817171097,112.5,1210.8742452368606" stroke-width="3" marker-end="url(#raphael-marker-endblock33-obj6193r)" style="-webkit-tap-highlight-color: rgba(0, 0, 0, 0);">
   </path>
   <path fill="none" stroke="#000000" d="M112.5,1251.375C112.5,1251.375,112.5,1316.1584817171097,112.5,1333.9992452368606" stroke-width="3" marker-end="url(#raphael-marker-endblock33-obj1ykvh)" style="-webkit-tap-highlight-color: rgba(0, 0, 0, 0);">
   </path>
   <path fill="none" stroke="#000000" d="M112.5,1374.5C112.5,1374.5,112.5,1439.2834817171097,112.5,1457.1242452368606" stroke-width="3" marker-end="url(#raphael-marker-endblock33-objj4qow)" style="-webkit-tap-highlight-color: rgba(0, 0, 0, 0);">
   </path>
   <path fill="none" stroke="#000000" d="M112.5,1497.625C112.5,1497.625,112.5,1562.4084817171097,112.5,1580.2492452368606" stroke-width="3" marker-end="url(#raphael-marker-endblock33-obj4hgsj)" style="-webkit-tap-highlight-color: rgba(0, 0, 0, 0);">
   </path>
   <path fill="none" stroke="#000000" d="M112.5,1620.75C112.5,1620.75,112.5,1685.5334817171097,112.5,1703.3742452368606" stroke-width="3" marker-end="url(#raphael-marker-endblock33-objwb2mz)" style="-webkit-tap-highlight-color: rgba(0, 0, 0, 0);">
   </path>
   <path fill="none" stroke="#000000" d="M112.5,1743.875C112.5,1743.875,112.5,1808.6584817171097,112.5,1826.4992452368606" stroke-width="3" marker-end="url(#raphael-marker-endblock33-objn5fi4)" style="-webkit-tap-highlight-color: rgba(0, 0, 0, 0);">
   </path>
   <path fill="none" stroke="#000000" d="M360.5,980.375C360.5,980.375,360.5,1806,360.5,1806C360.5,1806,112.5,1806,112.5,1806C112.5,1806,112.5,1819.3039712905884,112.5,1826.501627633348" stroke-width="3" marker-end="url(#raphael-marker-endblock33-obj7gb6w)" style="-webkit-tap-highlight-color: rgba(0, 0, 0, 0);">
   </path>
   <path fill="none" stroke="#000000" d="M493.5,688.75C493.5,688.75,493.5,767.75,493.5,767.75C493.5,767.75,112.5,767.75,112.5,767.75C112.5,767.75,112.5,781.0539712905884,112.5,788.2516276333481" stroke-width="3" marker-end="url(#raphael-marker-endblock33-objn2p4h)" style="-webkit-tap-highlight-color: rgba(0, 0, 0, 0);">
   </path>
  </svg>
